<mxfile host="app.diagrams.net" modified="2024-07-14T14:21:57.822Z" agent="Mozilla/5.0 (Windows NT 10.0; Win64; x64) AppleWebKit/537.36 (KHTML, like Gecko) Chrome/126.0.0.0 Safari/537.36" version="24.6.5" etag="SZ84bXvgTzDfwoc7sC1_" type="github">
  <diagram name="Page-1" id="KADP2OfkIA_tv73VA6hM">
    <mxGraphModel>
      <root>
        <mxCell id="0" />
        <mxCell id="1" parent="0" />
      </root>
    </mxGraphModel>
  </diagram>
</mxfile>
